<?xml version="1.0" standalone="no"?>
<!DOCTYPE svg PUBLIC "-//W3C//DTD SVG 20010904//EN"
 "http://www.w3.org/TR/2001/REC-SVG-20010904/DTD/svg10.dtd">
<svg version="1.0" xmlns="http://www.w3.org/2000/svg"
 width="500.000000pt" height="500.000000pt" viewBox="0 0 500.000000 500.000000"
 preserveAspectRatio="xMidYMid meet">

<g transform="translate(0.000000,500.000000) scale(0.100000,-0.100000)"
fill="#000000" stroke="none">
<path d="M2800 3008 c0 -20 -2 -21 -196 -16 -107 2 -197 1 -200 -3 -11 -18 29
-23 152 -20 155 3 244 -6 244 -24 0 -7 5 -15 12 -17 7 -3 9 -14 4 -32 -6 -22
-11 -27 -34 -24 -23 3 -28 8 -32 43 l-5 40 -22 -29 c-13 -16 -23 -36 -23 -44
0 -9 10 -27 23 -40 22 -23 22 -26 19 -270 -2 -138 -8 -259 -13 -274 -19 -48
28 -92 67 -63 16 11 17 37 15 286 l-2 274 25 34 c30 41 33 67 9 94 -18 19 -17
20 17 12 19 -4 89 -10 154 -13 132 -8 146 -3 146 48 0 59 -1 60 -135 60 -68 0
-135 -4 -149 -10 -17 -6 -35 -6 -51 0 -22 8 -25 7 -25 -12z m-2 -729 c4 -30
-22 -46 -44 -28 -17 14 -18 31 -2 47 19 19 43 9 46 -19z"/>
<path d="M120 3000 c0 -5 16 -10 35 -10 l35 0 -2 -357 -3 -358 -32 -3 c-18 -2
-33 -7 -33 -13 0 -5 116 -9 289 -9 l289 0 6 68 c4 37 9 93 12 125 8 76 -11 76
-51 -1 -45 -87 -110 -147 -174 -161 -101 -22 -91 -60 -91 349 l0 360 55 0 c30
0 55 5 55 10 0 6 -72 10 -195 10 -123 0 -195 -4 -195 -10z"/>
<path d="M775 3000 c3 -5 17 -10 31 -10 l24 0 0 -360 0 -360 -30 0 c-16 0 -30
-4 -30 -10 0 -6 63 -10 170 -10 107 0 170 4 170 10 0 6 -13 10 -30 10 l-30 0
0 178 0 177 46 -85 c57 -105 134 -258 134 -265 0 -3 -9 -5 -20 -5 -11 0 -20
-4 -20 -10 0 -6 63 -10 170 -10 107 0 170 4 170 10 0 6 -12 10 -27 10 -26 0
-36 16 -157 253 -89 174 -127 258 -121 268 5 8 47 56 93 107 75 81 88 92 118
92 19 0 34 5 34 10 0 6 -38 10 -95 10 -93 0 -133 -16 -56 -22 l39 -3 -140
-155 c-76 -85 -146 -162 -154 -170 -12 -12 -14 8 -14 158 l0 172 30 0 c17 0
30 5 30 10 0 6 -64 10 -171 10 -111 0 -168 -3 -164 -10z"/>
<path d="M3035 2772 c-111 -53 -169 -146 -169 -272 -1 -62 4 -85 27 -132 50
-102 138 -160 254 -166 91 -5 156 16 218 70 91 80 125 203 91 323 -23 75 -106
163 -180 188 -78 27 -170 22 -241 -11z m115 -80 c0 -77 -9 -102 -38 -102 -14
0 -122 98 -122 111 0 19 101 68 143 69 15 0 17 -10 17 -78z m142 47 c20 -10
40 -24 44 -30 10 -17 -97 -120 -121 -117 -17 3 -20 12 -23 71 -3 77 4 82 73
47 46 -24 82 -19 47 6 -12 8 -46 24 -75 35 -39 14 -43 17 -17 13 19 -4 52 -15
72 -25z m-221 -172 c19 -34 -6 -47 -92 -47 -75 0 -79 1 -79 23 0 23 33 101 52
124 9 11 21 5 60 -34 27 -26 54 -56 59 -66z m331 67 c9 -16 21 -48 26 -72 l10
-43 -86 3 c-76 3 -87 5 -90 22 -4 20 95 129 113 123 5 -2 17 -17 27 -33z
m-222 -65 c0 -5 -7 -9 -15 -9 -15 0 -20 12 -9 23 8 8 24 -1 24 -14z m24 -51
c15 -24 -3 -52 -37 -56 -33 -4 -53 28 -37 59 14 25 58 23 74 -3z m-96 -19 c-2
-6 -8 -10 -13 -10 -5 0 -11 4 -13 10 -2 6 4 11 13 11 9 0 15 -5 13 -11z m142
1 c0 -5 -4 -10 -9 -10 -6 0 -13 5 -16 10 -3 6 1 10 9 10 9 0 16 -4 16 -10z
m-180 -24 c0 -2 3 -11 6 -20 7 -18 -103 -139 -118 -130 -15 10 -58 106 -58
132 0 21 3 22 85 22 47 0 85 -2 85 -4z m359 -37 c-11 -48 -32 -90 -52 -107
-11 -10 -24 -2 -66 42 -47 50 -61 82 -44 99 3 4 43 7 89 7 l82 0 -9 -41z
m-251 -10 c-2 -6 -8 -10 -13 -10 -5 0 -11 4 -13 10 -2 6 4 11 13 11 9 0 15 -5
13 -11z m-40 -31 c18 -18 16 -168 -2 -168 -21 0 -92 27 -121 46 l-26 17 58 59
c60 60 71 66 91 46z m149 -41 c34 -33 53 -59 49 -66 -11 -17 -77 -48 -119 -56
l-37 -7 0 72 c0 76 11 110 36 110 9 0 41 -24 71 -53z"/>
<path d="M3100 2751 c-38 -12 -90 -40 -90 -50 0 -18 13 -17 57 5 25 13 52 24
60 24 7 0 13 7 13 15 0 16 -3 17 -40 6z"/>
<path d="M2952 2647 c-16 -18 -42 -83 -42 -102 0 -8 7 -15 15 -15 8 0 15 7 15
15 0 9 9 34 21 57 21 41 14 73 -9 45z"/>
<path d="M3355 2651 c-3 -5 4 -25 15 -43 11 -18 20 -43 20 -55 0 -14 6 -23 15
-23 20 0 19 26 -4 76 -20 45 -36 60 -46 45z"/>
<path d="M2910 2453 c1 -23 35 -99 48 -107 21 -13 22 14 2 53 -11 22 -20 47
-20 56 0 8 -7 15 -15 15 -8 0 -15 -8 -15 -17z"/>
<path d="M3390 2452 c0 -10 -9 -35 -20 -56 -18 -37 -19 -56 0 -56 12 0 50 82
50 108 0 13 -6 22 -15 22 -8 0 -15 -8 -15 -18z"/>
<path d="M3014 2308 c-10 -15 15 -36 63 -52 57 -20 63 -20 63 -1 0 8 -6 15
-13 15 -8 0 -35 11 -60 24 -26 13 -50 19 -53 14z"/>
<path d="M3286 2301 c-3 -4 -26 -14 -51 -21 -50 -14 -66 -45 -17 -34 41 9 95
37 100 52 4 13 -24 17 -32 3z"/>
<path d="M2357 2766 c-50 -18 -76 -42 -98 -91 -37 -80 -17 -166 48 -209 21
-13 76 -36 123 -50 98 -29 130 -49 130 -77 0 -60 -67 -89 -157 -69 -59 13
-111 62 -134 124 -7 20 -17 36 -21 36 -4 0 -8 -43 -8 -95 0 -57 4 -95 10 -95
6 0 10 4 10 10 0 25 37 28 95 8 106 -36 218 -13 268 53 43 58 40 179 -6 227
-30 33 -83 58 -161 78 -77 19 -116 46 -116 78 0 39 35 60 94 60 79 -2 123 -34
175 -129 8 -16 10 -1 11 69 l0 89 -20 -18 c-20 -18 -24 -18 -85 -2 -75 20
-107 21 -158 3z"/>
<path d="M3814 2760 c-22 -11 -47 -32 -55 -47 l-14 -26 -5 39 -5 39 -132 3
c-86 2 -133 -1 -133 -8 0 -5 14 -10 30 -10 l30 0 0 -240 0 -240 -30 0 c-16 0
-30 -4 -30 -10 0 -6 57 -10 150 -10 93 0 150 4 150 10 0 6 -7 10 -15 10 -13 0
-15 27 -15 180 0 190 7 227 47 263 11 9 27 15 35 12 23 -9 28 -58 28 -267 0
-181 -1 -188 -20 -188 -11 0 -20 -4 -20 -10 0 -6 53 -10 140 -10 87 0 140 4
140 10 0 6 -9 10 -20 10 -19 0 -20 7 -20 180 0 198 8 235 55 266 50 32 55 10
55 -233 0 -206 -1 -213 -20 -213 -11 0 -20 -4 -20 -10 0 -6 57 -10 150 -10 93
0 150 4 150 10 0 6 -13 10 -30 10 l-30 0 0 198 c0 168 -3 202 -18 231 -28 56
-63 76 -137 76 -70 0 -103 -17 -141 -72 l-21 -31 -18 34 c-24 45 -57 65 -118
70 -40 4 -62 0 -93 -16z"/>
<path d="M4583 2769 c-75 -22 -134 -126 -117 -203 17 -79 64 -115 204 -156 41
-12 83 -29 93 -38 25 -22 22 -68 -5 -86 -89 -57 -224 -6 -264 99 -9 25 -21 45
-25 45 -5 0 -9 -43 -9 -95 0 -52 3 -95 7 -95 4 0 17 10 30 22 23 21 24 21 61
4 55 -27 152 -32 207 -12 79 31 124 112 110 203 -12 79 -67 123 -204 161 -82
24 -111 44 -111 78 0 53 108 77 178 40 19 -10 47 -40 64 -67 17 -27 35 -49 39
-49 5 0 9 36 9 80 0 48 -4 80 -10 80 -6 0 -13 -7 -16 -15 -7 -17 -46 -20 -74
-5 -28 15 -130 21 -167 9z"/>
<path d="M1550 2760 c0 -5 13 -10 29 -10 l29 0 4 -197 c3 -168 6 -204 21 -235
46 -93 228 -106 284 -22 l18 28 5 -34 5 -35 123 -3 c79 -2 122 1 122 8 0 5
-11 10 -25 10 l-25 0 -2 248 -3 247 -127 3 c-83 2 -128 -1 -128 -8 0 -5 11
-10 25 -10 l25 0 0 -195 c0 -214 -7 -249 -55 -261 -52 -13 -54 -1 -57 245 l-3
226 -132 3 c-86 2 -133 -1 -133 -8z"/>
</g>
</svg>
